<svg width="330" height="1037" viewBox="0 0 330 1037" fill="none" xmlns="http://www.w3.org/2000/svg">
<path d="M24 1.32471H17.5C11.9772 1.32471 7.5 5.80186 7.5 11.3247V92.3247C7.5 97.8476 11.9772 102.325 17.5 102.325H163.5C169.023 102.325 173.5 106.802 173.5 112.325V131.325M312.5 210.825H319C324.523 210.825 329 215.302 329 220.825V306.325C329 311.848 324.523 316.325 319 316.325H167C161.477 316.325 157 320.802 157 326.325V346.325M22 440.825H11C5.47715 440.825 1 445.302 1 450.825V537.825C1 543.348 5.47715 547.825 11 547.825H136C141.523 547.825 146 552.302 146 557.825V583.325M314.5 679.825H319C324.523 679.825 329 684.302 329 689.825V791.825C329 797.348 324.523 801.825 319 801.825H177C171.477 801.825 167 806.302 167 811.825V820.825M21 902.825H15C9.47715 902.825 5 907.302 5 912.825V995.825C5 1001.35 9.47715 1005.82 15 1005.82H136C141.523 1005.82 146 1010.3 146 1015.82V1036.82" stroke="white" stroke-width="2" stroke-dasharray="10 10"/>
</svg>
